# AST/ASF file generated using VICON BodyLanguage
# -----------------------------------------------
:version 1.10
:name VICON
:units
  mass 1.0
  length 0.45
  angle deg
:documentation
   .ast/.asf automatically generated from VICON data using
   VICON BodyBuilder and BodyLanguage model FoxedUp or BRILLIANT.MOD
:root
   order TX TY TZ RX RY RZ
   axis XYZ
   position 0 0 0  
   orientation 0 0 0 
:bonedata
  begin
     id 1 
     name lhipjoint
     direction 0.577973 -0.728611 0.367523 
     length 2.48544 
     axis 0 0 0  XYZ
  end
  begin
     id 2 
     name lfemur
     direction 0.34202 -0.939693 0  
     length 7.1921  
     axis 0 0 20  XYZ
    dof rx ry rz
    limits (-160.0 20.0)
           (-70.0 70.0)
           (-60.0 70.0)
  end
  begin
     id 3 
     name ltibia
     direction 0.34202 -0.939693 0   
     length 7.71059   
     axis 0 0 20   XYZ
    dof rx
    limits (-10.0 170.0)
  end
  begin
     id 4 
     name lfoot
     direction 0.089538 -0.246004 0.965124   
     length 2.19909   
     axis -90 7.62852e-016 20   XYZ
    dof rx rz
    limits (-45.0 90.0)
           (-70.0 20.0)
  end
  begin
     id 5 
     name ltoes
     direction 1.53544e-011 -4.21829e-011 1   
     length 1.10116   
     axis -90 7.62852e-016 20   XYZ
    dof rx
    limits (-90.0 20.0)
  end
  begin
     id 6 
     name rhipjoint
     direction -0.554414 -0.743062 0.374812   
     length 2.4371  
     axis 0 0 0  XYZ 
  end
  begin
     id 7 
     name rfemur
     direction -0.34202 -0.939693 0   
     length 7.47254   
     axis 0 0 -20   XYZ
    dof rx ry rz
    limits (-160.0 20.0)
           (-70.0 70.0)
           (-70.0 60.0)
  end
  begin
     id 8 
     name rtibia
     direction -0.34202 -0.939693 0   
     length 7.65855   
     axis 0 0 -20   XYZ
    dof rx
    limits (-10.0 170.0)
 end
 begin
     id 9 
     name rfoot
     direction -0.133779 -0.367555 0.92033   
     length 2.43006  
     axis -90 -7.62852e-016 -20   XYZ
    dof rx rz
    limits (-45.0 90.0)
           (-20.0 70.0)
  end
  begin
     id 10 
     name rtoes
     direction -1.53563e-011 -4.21889e-011 1   
     length 1.19625   
     axis -90 -7.62852e-016 -20   XYZ
    dof rx
    limits (-90.0 20.0)
  end
  begin
     id 11 
     name lowerback
     direction 0.0249066 0.998043 -0.0573585   
     length 2.08485   
     axis 0 0 0   XYZ
    dof rx ry rz
    limits (-20.0 45.0)
           (-30.0 30.0)
           (-30.0 30.0)
  end
  begin
     id 12 
     name upperback
     direction 0.0237884 0.999673 0.00943178   
     length 2.08515   
     axis 0 0 0   XYZ
    dof rx ry rz
    limits (-20.0 45.0)
           (-30.0 30.0)
           (-30.0 30.0)
  end
  begin
     id 13 
     name thorax
     direction 0.0106671 0.999301 0.0358174   
     length 2.09037   
     axis 0 0 0   XYZ
    dof rx ry rz
    limits (-20.0 45.0)
           (-30.0 30.0)
           (-30.0 30.0)
  end
  begin
     id 14 
     name lowerneck
     direction -0.0580016 0.987052 0.149546   
     length 1.84454   
     axis 0 0 0   XYZ
    dof rx ry rz
    limits (-20.0 45.0)
           (-30.0 30.0)
           (-30.0 30.0)
  end
  begin
     id 15 
     name upperneck
     direction 0.079456 0.981963 -0.171567   
     length 1.88141   
     axis 0 0 0   XYZ
    dof rx ry rz
    limits (-20.0 45.0)
           (-30.0 30.0)
           (-30.0 30.0)
  end
  begin
     id 16
     name head
     direction 0.0262167 0.9967 -0.0768276  
     length 1.89541  
     axis 0 0 0   XYZ
    dof rx ry rz
    limits (-20.0 45.0)
           (-30.0 30.0)
           (-30.0 30.0)
  end
  begin
     id 17 
     name lclavicle
     direction 0.946135 0.322134 -0.0325326  
     length 3.949  
     axis 0 0 0   XYZ
    dof ry rz
    limits (-20.0 10.0)
           (0.0 20.0)
  end
  begin
     id 18 
     name lhumerus
     direction 1 -4.48964e-011 1.94005e-028   
     length 5.10995   
     axis 180 -30 -90   XYZ
    dof rx ry rz
    limits (-60.0 90.0)
           (-90.0 90.0)
           (-90.0 90.0)
  end
  begin
     id 19
     name lradius
     direction 1 -4.48976e-011 2.87852e-027   
     length 3.21207   
     axis 180 -30 -90   XYZ
    dof rx
    limits (-10.0 170.0)
  end
  begin
     id 20
     name lwrist
     direction 1 -4.48963e-011 1.9975e-027   
     length 1.60604   
     axis 2.96054e-016 90 90   XYZ
    dof ry
    limits (-180.0 0.0)
 end
  begin
     id 21 
     name lhand
     direction 1 -4.48919e-011 4.00227e-027   
     length 0.63349   
     axis -2.5488e-015 90 90   XYZ
    dof rx rz
    limits (-90.0 90.0)
           (-45.0 45.0)
  end
  begin
     id 22 
     name lfingers
     direction 1 -4.49037e-011 7.9652e-027   
     length 0.510736   
     axis -5.0975e-015 90 90   XYZ
    dof rx
    limits (0.0 90.0)
  end
  begin
     id 23
     name lthumb
     direction 0.707107 -6.34922e-011 0.707107   
     length 0.733318   
     axis -90 45 -4.48553e-014   XYZ
    dof rx rz
    limits (-45.0 45.0)
           (-45.0 45.0)
  end
  begin
     id 24 
     name rclavicle
     direction -0.940085 0.328911 -0.0897654   
     length 3.93848  
     axis 0 0 0   XYZ 
    dof ry rz
    limits (-10.0 20.0)
           (-20.0 0.0)
  end
  begin
     id 25 
     name rhumerus
     direction -1 -4.48958e-011 3.02044e-027  
     length 5.25109   
     axis 180 30 90   XYZ
    dof rx ry rz
    limits (-90.0 60.0)
           (-90.0 90.0)
           (-90.0 90.0)
  end
  begin
     id 26 
     name rradius
     direction -1 -4.4897e-011 9.78352e-028   
     length 3.28364   
     axis 180 30 90   XYZ
    dof rx
    limits (-10.0 170.0)
  end
  begin
     id 27 
     name rwrist
     direction -1 -4.48943e-011 1.99918e-027   
     length 1.64182   
     axis 2.96054e-016 -90 -90   XYZ
    dof ry
    limits (-180.0 0.0)
  end
  begin
     id 28
     name rhand
     direction -1 -4.49024e-011 3.98478e-027   
     length 0.599745   
     axis -2.5488e-015 -90 -90   XYZ
    dof rx rz
    limits (-90.0 90.0)
           (-45.0 45.0)
  end
  begin
     id 29
     name rfingers
     direction -1 -4.48914e-011 8.00621e-027   
     length 0.48353   
     axis -5.0975e-015 -90 -90   XYZ
    dof rx
    limits (0.0 90.0)
  end
  begin
     id 30
     name rthumb
     direction -0.707107 -6.34992e-011 0.707107   
     length 0.694255   
     axis -90 -45 4.48553e-014   XYZ
    dof rx rz
    limits (-45.0 45.0)
           (-45.0 45.0)
  end
:hierarchy
  begin
    root lhipjoint rhipjoint lowerback
    lhipjoint lfemur
    lfemur ltibia
    ltibia lfoot
    lfoot ltoes
    rhipjoint rfemur
    rfemur rtibia
    rtibia rfoot
    rfoot rtoes
    lowerback upperback
    upperback thorax
    thorax lowerneck lclavicle rclavicle
    lowerneck upperneck
    upperneck head
    lclavicle lhumerus
    lhumerus lradius
    lradius lwrist
    lwrist lhand lthumb
    lhand lfingers
    rclavicle rhumerus
    rhumerus rradius
    rradius rwrist
    rwrist rhand rthumb
    rhand rfingers
  end

#!OML:ASF E:\CV Data\Top Level 1\Subject 1\Session 1\player.ASF
:FULLY-SPECIFIED
:DEGREES
141
root 8.88455 16.8832 -5.07939 95.0105 -87.0242 -94.8953
lowerback 3.74295 2.36232 3.86506
upperback -0.480643 3.35075 2.02316
thorax -2.49204 1.617 -0.273504
lowerneck -14.9739 11.7414 -2.91051
upperneck 23.2376 16.0191 3.98894
head 9.16918 7.59108 3.68281
rclavicle -4.65902e-015 7.95139e-015
rhumerus -42.8637 38.0804 -104.903
rradius 87.9227
rwrist -13.0445
rhand -27.7365 14.1354
rfingers 7.12502
rthumb -1.13139 -15.8414
lclavicle -4.65902e-015 7.95139e-015
lhumerus -43.1462 -33.7224 110.546
lradius 91.1685
lwrist 46.4695
lhand -22.2708 40.6145
lfingers 7.12502
lthumb 4.14725 70.5539
rfemur -19.1214 7.2996 26.694
rtibia 46.0158
rfoot -24.9434 -8.58847
rtoes 11.4869
lfemur -17.558 1.87326 -11.8858
ltibia 42.133
lfoot -18.6732 6.99641
ltoes -3.69737
142
root 8.90671 16.8786 -5.0923 94.809 -86.9416 -94.7572
lowerback 3.95137 2.35352 3.9362
upperback -0.430105 3.3517 2.04797
thorax -2.55443 1.61545 -0.29586
lowerneck -15.0093 11.7341 -2.90211
upperneck 23.2139 16.0237 3.92338
head 9.17445 7.58654 3.66275
rclavicle -6.19835e-014 -3.18055e-015
rhumerus -42.6006 38.1552 -104.844
rradius 87.9717
rwrist -13.1633
rhand -28.0942 14.071
rfingers 7.12502
rthumb -1.47685 -15.9036
lclavicle -6.19835e-014 -3.18055e-015
lhumerus -43.0046 -33.7649 110.507
lradius 91.3076
lwrist 46.4567
lhand -22.705 40.6092
lfingers 7.12502
lthumb 3.72793 70.5564
rfemur -19.199 7.32209 26.8604
rtibia 46.1069
rfoot -24.8296 -8.70868
rtoes 11.4674
lfemur -17.6958 2.02229 -11.7296
ltibia 42.3199
lfoot -18.6187 6.82272
ltoes -3.80385
143
root 8.93091 16.8741 -5.10609 94.474 -86.8457 -94.4877
lowerback 4.17895 2.33967 4.01112
upperback -0.372074 3.34719 2.08252
thorax -2.62038 1.61103 -0.310673
lowerneck -15.0468 11.7277 -2.90811
upperneck 23.1835 16.0333 3.85693
head 9.17637 7.58334 3.64461
rclavicle -2.2823e-014 -9.93923e-015
rhumerus -42.3186 38.2543 -104.781
rradius 88.0212
rwrist -13.2685
rhand -28.4965 13.9905
rfingers 7.12502
rthumb -1.86541 -15.9811
lclavicle -2.2823e-014 -9.93923e-015
lhumerus -42.818 -33.8014 110.431
lradius 91.4605
lwrist 46.4952
lhand -23.1261 40.624
lfingers 7.12502
lthumb 3.32133 70.5779
rfemur -19.2748 7.31593 27.0423
rtibia 46.1846
rfoot -24.7055 -8.80796
rtoes 11.4344
lfemur -17.8481 2.1802 -11.5457
ltibia 42.5243
lfoot -18.5806 6.5704
ltoes -3.57388
144
root 8.95713 16.8697 -5.12074 94.0044 -86.7361 -94.0821
lowerback 4.42263 2.32466 4.09697
upperback -0.307679 3.3426 2.12053
thorax -2.68836 1.60631 -0.328473
lowerneck -15.0875 11.7187 -2.9206
upperneck 23.1462 16.0404 3.79241
head 9.17583 7.57897 3.62754
rclavicle -2.33696e-014 1.07344e-014
rhumerus -42.0112 38.3556 -104.712
rradius 88.0697
rwrist -13.3569
rhand -28.9214 13.9048
rfingers 7.12502
rthumb -2.27576 -16.0628
lclavicle -2.33696e-014 1.07344e-014
lhumerus -42.5815 -33.8489 110.308
lradius 91.6247
lwrist 46.5876
lhand -23.5061 40.6556
lfingers 7.12502
lthumb 2.95433 70.6148
rfemur -19.3524 7.28654 27.238
rtibia 46.2498
rfoot -24.5731 -8.8812
rtoes 11.4033
lfemur -18.021 2.36072 -11.341
ltibia 42.7454
lfoot -18.5343 6.28948
ltoes -3.32861
145
root 8.98524 16.8658 -5.13545 93.3198 -86.6203 -93.4539
lowerback 4.67338 2.30738 4.19524
upperback -0.237792 3.33611 2.15934
thorax -2.75401 1.60043 -0.352327
lowerneck -15.1308 11.7066 -2.94064
upperneck 23.1054 16.045 3.72753
head 9.17398 7.57297 3.61113
rclavicle 1.91579e-014 2.78299e-014
rhumerus -41.6758 38.452 -104.628
rradius 88.1185
rwrist -13.4282
rhand -29.3392 13.8201
rfingers 7.12502
rthumb -2.67932 -16.1428
lclavicle 1.91579e-014 2.78299e-014
lhumerus -42.2913 -33.9011 110.146
lradius 91.7895
lwrist 46.7172
lhand -23.8388 40.6948
lfingers 7.12502
lthumb 2.63308 70.6583
rfemur -19.4404 7.22993 27.4324
rtibia 46.3036
rfoot -24.4345 -8.92096
rtoes 11.3823
lfemur -18.2187 2.52406 -11.126
ltibia 42.9808
lfoot -18.4868 5.97481
ltoes -2.91383
